<?xml version="1.0" encoding="UTF-8"?>
<!DOCTYPE svg PUBLIC "-//W3C//DTD SVG 1.1//EN" "http://www.w3.org/Graphics/SVG/1.1/DTD/svg11.dtd">
<svg xmlns="http://www.w3.org/2000/svg" version="1.1" width="225px" height="225px" style="shape-rendering:geometricPrecision; text-rendering:geometricPrecision; image-rendering:optimizeQuality; fill-rule:evenodd; clip-rule:evenodd" xmlns:xlink="http://www.w3.org/1999/xlink">
<g><path style="opacity:1" fill="#fefefd" d="M -0.5,-0.5 C 74.5,-0.5 149.5,-0.5 224.5,-0.5C 224.5,74.5 224.5,149.5 224.5,224.5C 149.5,224.5 74.5,224.5 -0.5,224.5C -0.5,149.5 -0.5,74.5 -0.5,-0.5 Z"/></g>
<g><path style="opacity:1" fill="#8db321" d="M 86.5,9.5 C 87.1174,9.61071 87.6174,9.94404 88,10.5C 89.5984,17.8308 88.2651,24.4975 84,30.5C 83.6667,28.8333 83.3333,27.1667 83,25.5C 81.7742,32.6392 80.1075,32.9725 78,26.5C 77.3333,23.8333 77.3333,21.1667 78,18.5C 80.3622,14.9734 83.1955,11.9734 86.5,9.5 Z"/></g>
<g><path style="opacity:1" fill="#4a9217" d="M 196.5,22.5 C 204.049,24.2133 208.882,28.8799 211,36.5C 214.647,48.4073 211.147,57.4073 200.5,63.5C 200.167,63.3333 199.833,63.1667 199.5,63C 205.048,58.0242 207.214,51.8576 206,44.5C 204.173,51.6589 200.673,57.8256 195.5,63C 194.668,63.6877 194.002,63.521 193.5,62.5C 193.494,54.0722 195.327,46.0722 199,38.5C 200.166,32.758 199.332,27.4247 196.5,22.5 Z"/></g>
<g><path style="opacity:1" fill="#f0f2eb" d="M 104.5,38.5 C 96.5421,39.4061 88.8754,41.4061 81.5,44.5C 80.5365,41.2278 81.5365,38.3945 84.5,36C 91.2469,36.8102 97.9136,37.6435 104.5,38.5 Z"/></g>
<g><path style="opacity:1" fill="#658831" d="M 154.5,47.5 C 151.982,46.7362 149.649,45.7362 147.5,44.5C 143.494,40.2755 138.494,38.6089 132.5,39.5C 129.904,40.0549 127.571,41.0549 125.5,42.5C 122.298,44.5137 118.798,45.847 115,46.5C 112.265,46.569 110.098,45.569 108.5,43.5C 113.916,43.1914 118.916,41.5247 123.5,38.5C 127.488,37.5052 131.488,36.5052 135.5,35.5C 144.004,36.2426 150.338,40.2426 154.5,47.5 Z"/></g>
<g><path style="opacity:1" fill="#dee2d5" d="M 132.5,39.5 C 138.494,38.6089 143.494,40.2755 147.5,44.5C 142.459,42.6637 137.459,40.9971 132.5,39.5 Z"/></g>
<g><path style="opacity:1" fill="#2c3c13" d="M 104.5,38.5 C 105.5,38.5 106.5,38.5 107.5,38.5C 112.833,38.5 118.167,38.5 123.5,38.5C 118.916,41.5247 113.916,43.1914 108.5,43.5C 98.299,43.1326 88.6323,45.4659 79.5,50.5C 79.9707,48.4214 80.6373,46.4214 81.5,44.5C 88.8754,41.4061 96.5421,39.4061 104.5,38.5 Z"/></g>
<g><path style="opacity:1" fill="#050603" d="M 108.5,43.5 C 110.098,45.569 112.265,46.569 115,46.5C 118.798,45.847 122.298,44.5137 125.5,42.5C 135.944,44.4211 145.611,48.0878 154.5,53.5C 157.325,60.324 162.325,64.6573 169.5,66.5C 175.06,69.8974 179.56,74.5641 183,80.5C 193.189,98.7149 196.356,118.048 192.5,138.5C 189.813,138.336 187.146,138.503 184.5,139C 180.843,141.993 178.177,145.66 176.5,150C 175.207,150.49 173.873,150.657 172.5,150.5C 172.78,145.687 172.114,141.02 170.5,136.5C 172.166,133.823 171.499,132.156 168.5,131.5C 166.272,132.219 164.439,133.552 163,135.5C 159.806,140.554 157.139,145.888 155,151.5C 152.881,154.477 151.714,154.144 151.5,150.5C 153.209,145.616 153.709,140.616 153,135.5C 149.552,133.012 146.552,133.678 144,137.5C 143.671,133.96 141.838,132.794 138.5,134C 136.958,138.029 135.792,142.196 135,146.5C 133.143,152.178 129.309,154.345 123.5,153C 121.963,151.89 121.297,150.39 121.5,148.5C 130.099,149.064 133.599,145.064 132,136.5C 126.808,132.454 122.142,133.12 118,138.5C 116.501,143.35 114.334,147.85 111.5,152C 108.97,153.422 106.303,153.755 103.5,153C 101.963,151.89 101.297,150.39 101.5,148.5C 111.436,148.444 114.436,143.944 110.5,135C 105.38,132.494 101.214,133.661 98,138.5C 96.3333,142.5 94.6667,146.5 93,150.5C 91.2658,152.451 89.0991,153.451 86.5,153.5C 86.3398,151.801 86.5065,150.134 87,148.5C 88.3264,146.017 89.4931,143.517 90.5,141C 87.6517,136.972 85.3184,132.638 83.5,128C 81.5911,127.552 80.4244,128.385 80,130.5C 80.4101,140.267 77.4101,148.934 71,156.5C 70.8333,156 70.6667,155.5 70.5,155C 71.8982,150.575 72.8982,146.075 73.5,141.5C 71.8008,141.34 70.1341,141.506 68.5,142C 67.2067,145.219 65.5401,148.219 63.5,151C 57.3412,153.638 54.6746,151.471 55.5,144.5C 55.5147,140.585 56.3481,136.918 58,133.5C 66.7816,139.097 72.615,136.931 75.5,127C 73.9238,119.897 69.5904,117.564 62.5,120C 60.2462,121.377 58.0795,122.877 56,124.5C 55.654,122.782 55.154,121.115 54.5,119.5C 53.7261,118.289 52.8928,118.289 52,119.5C 52.1547,122.141 52.6547,124.807 53.5,127.5C 49.9209,134.446 48.7542,141.779 50,149.5C 52.4722,156.662 56.9722,158.662 63.5,155.5C 63.8333,156 64.1667,156.5 64.5,157C 61.1921,159.101 58.0255,161.601 55,164.5C 54.5026,167.146 54.3359,169.813 54.5,172.5C 46.9027,164.643 41.9027,155.31 39.5,144.5C 40.8673,140.542 39.8673,137.209 36.5,134.5C 34.9253,123.729 35.2587,113.063 37.5,102.5C 38.4959,102.586 39.3292,102.252 40,101.5C 40.4955,99.5273 40.6621,97.5273 40.5,95.5C 41.5923,90.6445 43.259,85.9779 45.5,81.5C 47.717,80.6314 50.0504,80.298 52.5,80.5C 54.9479,81.4731 57.6146,81.8064 60.5,81.5C 60.5,92.8333 60.5,104.167 60.5,115.5C 62.5,115.5 64.5,115.5 66.5,115.5C 67.4946,104.679 67.8279,93.6794 67.5,82.5C 70.0593,82.8016 72.3926,82.4682 74.5,81.5C 74.5,79.8333 74.5,78.1667 74.5,76.5C 71.1667,76.5 67.8333,76.5 64.5,76.5C 72.5795,69.6822 77.5795,61.0156 79.5,50.5C 88.6323,45.4659 98.299,43.1326 108.5,43.5 Z"/></g>
<g><path style="opacity:1" fill="#050603" d="M 75.5,53.5 C 73.5389,64.4646 67.5389,72.1312 57.5,76.5C 55.5853,76.2155 53.9187,76.5489 52.5,77.5C 51.1266,77.6567 49.7932,77.49 48.5,77C 55.4263,66.7392 64.2596,58.5726 75,52.5C 75.3988,52.7284 75.5654,53.0618 75.5,53.5 Z"/></g>
<g><path style="opacity:1" fill="#2a3a11" d="M 76.5,47.5 C 76.9382,47.4346 77.2716,47.6012 77.5,48C 76.8906,49.9483 76.224,51.7816 75.5,53.5C 75.5654,53.0618 75.3988,52.7284 75,52.5C 64.2596,58.5726 55.4263,66.7392 48.5,77C 49.7932,77.49 51.1266,77.6567 52.5,77.5C 52.5,77.8333 52.5,78.1667 52.5,78.5C 49.5,78.5 46.5,78.5 43.5,78.5C 51.6009,65.0653 62.6009,54.732 76.5,47.5 Z"/></g>
<g><path style="opacity:1" fill="#5f8230" d="M 169.5,66.5 C 162.325,64.6573 157.325,60.324 154.5,53.5C 154.435,53.0618 154.601,52.7284 155,52.5C 158.5,54.6667 161.333,57.5 163.5,61C 166.433,62.2709 169.099,63.9376 171.5,66C 170.906,66.4643 170.239,66.631 169.5,66.5 Z"/></g>
<g><path style="opacity:1" fill="#648733" d="M 107.5,38.5 C 106.5,38.5 105.5,38.5 104.5,38.5C 97.9136,37.6435 91.2469,36.8102 84.5,36C 81.5365,38.3945 80.5365,41.2278 81.5,44.5C 80.6373,46.4214 79.9707,48.4214 79.5,50.5C 77.5795,61.0156 72.5795,69.6822 64.5,76.5C 62.1667,76.5 59.8333,76.5 57.5,76.5C 67.5389,72.1312 73.5389,64.4646 75.5,53.5C 76.224,51.7816 76.8906,49.9483 77.5,48C 77.2716,47.6012 76.9382,47.4346 76.5,47.5C 77.8768,43.9318 79.0435,40.2651 80,36.5C 80.9025,35.2986 82.0692,34.4652 83.5,34C 90.4832,34.065 97.4832,34.3983 104.5,35C 106.426,35.4224 107.426,36.5891 107.5,38.5 Z"/></g>
<g><path style="opacity:1" fill="#8eb322" d="M 199.5,66.5 C 205.704,67.0255 210.371,70.0255 213.5,75.5C 206.586,77.7701 200.586,76.4367 195.5,71.5C 197.991,70.4593 197.991,69.6259 195.5,69C 196.858,68.0656 198.192,67.2323 199.5,66.5 Z"/></g>
<g><path style="opacity:1" fill="#adc013" d="M 57.5,76.5 C 59.8333,76.5 62.1667,76.5 64.5,76.5C 67.8333,76.5 71.1667,76.5 74.5,76.5C 74.5,78.1667 74.5,79.8333 74.5,81.5C 71.8333,81.5 69.1667,81.5 66.5,81.5C 66.5,92.8333 66.5,104.167 66.5,115.5C 64.5,115.5 62.5,115.5 60.5,115.5C 60.5,104.167 60.5,92.8333 60.5,81.5C 57.6146,81.8064 54.9479,81.4731 52.5,80.5C 52.5,79.8333 52.5,79.1667 52.5,78.5C 52.5,78.1667 52.5,77.8333 52.5,77.5C 53.9187,76.5489 55.5853,76.2155 57.5,76.5 Z"/></g>
<g><path style="opacity:1" fill="#a9bc15" d="M 126.5,76.5 C 126.5,79.8333 126.5,83.1667 126.5,86.5C 128.5,86.5 130.5,86.5 132.5,86.5C 133.451,87.9187 133.784,89.5853 133.5,91.5C 131.167,91.5 128.833,91.5 126.5,91.5C 126.334,97.1764 126.501,102.843 127,108.5C 129,109.167 131,109.833 133,110.5C 133.494,112.134 133.66,113.801 133.5,115.5C 128.391,116.077 124.224,114.41 121,110.5C 119.971,99.1386 119.804,87.8053 120.5,76.5C 122.5,76.5 124.5,76.5 126.5,76.5 Z"/></g>
<g><path style="opacity:1" fill="#e8eae3" d="M 41.5,81.5 C 40.1667,84.1667 38.8333,86.8333 37.5,89.5C 35.615,87.2046 35.115,84.538 36,81.5C 37.9435,80.193 39.7768,80.193 41.5,81.5 Z"/></g>
<g><path style="opacity:1" fill="#343815" d="M 126.5,76.5 C 127.477,79.2869 127.81,82.2869 127.5,85.5C 129.415,85.2155 131.081,85.5489 132.5,86.5C 130.5,86.5 128.5,86.5 126.5,86.5C 126.5,83.1667 126.5,79.8333 126.5,76.5 Z"/></g>
<g><path style="opacity:1" fill="#28380f" d="M 41.5,81.5 C 42.8333,81.5 44.1667,81.5 45.5,81.5C 43.259,85.9779 41.5923,90.6445 40.5,95.5C 39.5082,93.5439 38.5082,91.5439 37.5,89.5C 38.8333,86.8333 40.1667,84.1667 41.5,81.5 Z"/></g>
<g><path style="opacity:1" fill="#3d4315" d="M 74.5,81.5 C 72.3926,82.4682 70.0593,82.8016 67.5,82.5C 67.8279,93.6794 67.4946,104.679 66.5,115.5C 66.5,104.167 66.5,92.8333 66.5,81.5C 69.1667,81.5 71.8333,81.5 74.5,81.5 Z"/></g>
<g><path style="opacity:1" fill="#a9bb16" d="M 99.5,86.5 C 104.297,86.1211 108.964,86.6211 113.5,88C 116.041,89.8484 117.041,92.3484 116.5,95.5C 113.058,95.9682 110.391,94.8016 108.5,92C 106.101,91.289 103.768,91.4557 101.5,92.5C 100.107,94.6741 100.44,96.5074 102.5,98C 107.576,97.9143 112.076,99.4143 116,102.5C 116.768,115.195 110.935,119.362 98.5,115C 95.1558,113.106 93.8224,110.273 94.5,106.5C 96.5,106.5 98.5,106.5 100.5,106.5C 100.375,109.893 102.042,111.226 105.5,110.5C 110.75,110.345 111.75,108.178 108.5,104C 97.8167,105.318 93.3167,100.818 95,90.5C 96.3968,88.9297 97.8968,87.5964 99.5,86.5 Z"/></g>
<g><path style="opacity:1" fill="#a9bb15" d="M 139.5,86.5 C 153.993,83.3281 159.993,88.9948 157.5,103.5C 152.167,103.5 146.833,103.5 141.5,103.5C 140.422,110.065 143.089,112.232 149.5,110C 151.164,106.864 153.831,105.697 157.5,106.5C 157.682,111.489 155.349,114.655 150.5,116C 145.643,116.998 141.143,116.165 137,113.5C 135.402,105.939 135.069,98.2724 136,90.5C 137.376,89.2949 138.542,87.9616 139.5,86.5 Z"/></g>
<g><path style="opacity:1" fill="#a8ba16" d="M 75.5,86.5 C 79.5138,86.3345 83.5138,86.5012 87.5,87C 89.286,87.7845 90.786,88.9512 92,90.5C 92.4998,99.1603 92.6664,107.827 92.5,116.5C 87.4889,116.666 82.4889,116.499 77.5,116C 70.9888,114.118 68.8221,109.951 71,103.5C 75.1321,98.9517 80.2987,97.285 86.5,98.5C 87.1855,92.3336 84.5189,90.167 78.5,92C 76.609,94.8016 73.9423,95.9682 70.5,95.5C 70.3723,91.4153 72.039,88.4153 75.5,86.5 Z"/></g>
<g><path style="opacity:1" fill="#a9bb16" d="M 163.5,86.5 C 167.846,86.3343 172.179,86.501 176.5,87C 180.089,88.6742 181.755,91.5075 181.5,95.5C 178.058,95.9682 175.391,94.8016 173.5,92C 171.167,91.3333 168.833,91.3333 166.5,92C 165.167,94 165.167,96 166.5,98C 171.387,97.8696 175.887,99.0362 180,101.5C 183.38,108.423 181.546,113.256 174.5,116C 169.126,117.392 164.459,116.225 160.5,112.5C 159.652,110.591 159.318,108.591 159.5,106.5C 161.5,106.5 163.5,106.5 165.5,106.5C 165.375,109.893 167.042,111.226 170.5,110.5C 175.75,110.345 176.75,108.178 173.5,104C 159.049,104.1 155.716,98.2669 163.5,86.5 Z"/></g>
<g><path style="opacity:1" fill="#0e0e06" d="M 142.5,91.5 C 148.826,89.8411 151.826,92.1744 151.5,98.5C 148.167,98.5 144.833,98.5 141.5,98.5C 141.298,96.0504 141.631,93.717 142.5,91.5 Z"/></g>
<g><path style="opacity:1" fill="#638531" d="M 43.5,78.5 C 46.5,78.5 49.5,78.5 52.5,78.5C 52.5,79.1667 52.5,79.8333 52.5,80.5C 50.0504,80.298 47.717,80.6314 45.5,81.5C 44.1667,81.5 42.8333,81.5 41.5,81.5C 39.7768,80.193 37.9435,80.193 36,81.5C 35.115,84.538 35.615,87.2046 37.5,89.5C 38.5082,91.5439 39.5082,93.5439 40.5,95.5C 40.6621,97.5273 40.4955,99.5273 40,101.5C 39.3292,102.252 38.4959,102.586 37.5,102.5C 39.1833,98.9051 38.5167,95.9051 35.5,93.5C 35.1365,90.4373 34.4698,87.4373 33.5,84.5C 33.3352,81.994 34.3352,80.1607 36.5,79C 38.8098,78.5034 41.1432,78.3367 43.5,78.5 Z"/></g>
<g><path style="opacity:1" fill="#2a3a11" d="M 35.5,93.5 C 38.5167,95.9051 39.1833,98.9051 37.5,102.5C 35.2587,113.063 34.9253,123.729 36.5,134.5C 34.4525,132.45 32.7859,130.117 31.5,127.5C 31.3089,119.799 31.6423,112.132 32.5,104.5C 33.404,103.791 33.7373,102.791 33.5,101.5C 34.1667,98.8333 34.8333,96.1667 35.5,93.5 Z"/></g>
<g><path style="opacity:1" fill="#2d3c14" d="M 132.5,39.5 C 137.459,40.9971 142.459,42.6637 147.5,44.5C 149.649,45.7362 151.982,46.7362 154.5,47.5C 188.493,68.8322 202.493,99.4989 196.5,139.5C 195.539,141.265 195.205,143.265 195.5,145.5C 193.656,149.01 191.989,152.677 190.5,156.5C 188.537,157.82 186.537,159.154 184.5,160.5C 186.827,154.524 189.16,148.524 191.5,142.5C 190.311,141.571 188.978,141.238 187.5,141.5C 189.531,141.028 191.198,140.028 192.5,138.5C 196.356,118.048 193.189,98.7149 183,80.5C 179.56,74.5641 175.06,69.8974 169.5,66.5C 170.239,66.631 170.906,66.4643 171.5,66C 169.099,63.9376 166.433,62.2709 163.5,61C 161.333,57.5 158.5,54.6667 155,52.5C 154.601,52.7284 154.435,53.0618 154.5,53.5C 145.611,48.0878 135.944,44.4211 125.5,42.5C 127.571,41.0549 129.904,40.0549 132.5,39.5 Z"/></g>
<g><path style="opacity:1" fill="#0a0b05" d="M 78.5,103.5 C 81.1667,103.5 83.8333,103.5 86.5,103.5C 87.2652,110.303 84.4319,112.303 78,109.5C 77.3224,107.402 77.4891,105.402 78.5,103.5 Z"/></g>
<g><path style="opacity:1" fill="#e7e9e1" d="M 32.5,104.5 C 31.6423,112.132 31.3089,119.799 31.5,127.5C 28.5091,124.366 27.1757,120.532 27.5,116C 26.9628,111.083 28.6295,107.25 32.5,104.5 Z"/></g>
<g><path style="opacity:1" fill="#448f0e" d="M 5.5,117.5 C 12.2481,115.581 17.9147,117.415 22.5,123C 19.8333,122.333 17.1667,121.667 14.5,121C 16.8333,122.5 19.1667,124 21.5,125.5C 13.3938,128.114 8.0605,125.447 5.5,117.5 Z"/></g>
<g><path style="opacity:1" fill="#63872e" d="M 33.5,101.5 C 33.7373,102.791 33.404,103.791 32.5,104.5C 28.6295,107.25 26.9628,111.083 27.5,116C 27.1757,120.532 28.5091,124.366 31.5,127.5C 32.7859,130.117 34.4525,132.45 36.5,134.5C 39.8673,137.209 40.8673,140.542 39.5,144.5C 37.9022,140.993 35.5689,137.993 32.5,135.5C 23.7588,126.637 22.2588,116.637 28,105.5C 29.4321,103.561 31.2654,102.228 33.5,101.5 Z"/></g>
<g><path style="opacity:1" fill="#5b7834" d="M 94.5,122.5 C 96.1992,122.34 97.8659,122.506 99.5,123C 98.5838,123.374 97.7504,123.874 97,124.5C 96.8184,127.226 96.3184,129.893 95.5,132.5C 94.513,129.232 94.1796,125.898 94.5,122.5 Z"/></g>
<g><path style="opacity:1" fill="#587430" d="M 116.5,121.5 C 118.39,121.297 119.89,121.963 121,123.5C 121.821,126.554 121.655,129.554 120.5,132.5C 118.833,120.5 117.167,120.5 115.5,132.5C 114.167,120.5 112.833,120.5 111.5,132.5C 110.513,129.232 110.18,125.898 110.5,122.5C 112.735,122.795 114.735,122.461 116.5,121.5 Z"/></g>
<g><path style="opacity:1" fill="#5e7d33" d="M 128.5,118.5 C 129.434,119.568 129.768,120.901 129.5,122.5C 130.552,122.351 131.552,122.517 132.5,123C 129.887,125.749 129.887,128.582 132.5,131.5C 131.132,132.594 129.965,132.26 129,130.5C 128.003,126.428 127.836,122.428 128.5,118.5 Z"/></g>
<g><path style="opacity:1" fill="#5b7832" d="M 133.5,117.5 C 135.117,118.589 135.95,120.256 136,122.5C 138.54,121.124 140.54,121.79 142,124.5C 141.995,135.167 141.328,135.167 140,124.5C 138.667,123.167 137.333,123.167 136,124.5C 135.818,127.226 135.318,129.893 134.5,132.5C 133.506,127.544 133.173,122.544 133.5,117.5 Z"/></g>
<g><path style="opacity:1" fill="#628531" d="M 91.5,118.5 C 94.7973,118.329 95.1306,118.995 92.5,120.5C 92.8333,121.167 93.1667,121.833 93.5,122.5C 91.8978,125.237 91.0645,128.237 91,131.5C 90.7435,128.443 90.2435,125.443 89.5,122.5C 90.1799,121.14 90.8466,119.807 91.5,118.5 Z"/></g>
<g><path style="opacity:1" fill="#5e7e34" d="M 102.5,122.5 C 108.204,122.146 110.037,124.813 108,130.5C 105.321,133.172 102.988,132.838 101,129.5C 100.167,126.829 100.667,124.496 102.5,122.5 Z"/></g>
<g><path style="opacity:1" fill="#0c0e08" d="M 103.5,123.5 C 107.473,124.075 108.473,126.242 106.5,130C 105.216,130.684 104.049,130.517 103,129.5C 102.322,127.402 102.489,125.402 103.5,123.5 Z"/></g>
<g><path style="opacity:1" fill="#567130" d="M 146.5,121.5 C 150.357,121.69 152.024,123.69 151.5,127.5C 149.396,127.201 147.396,127.534 145.5,128.5C 145.887,129.72 146.72,130.387 148,130.5C 151.545,128.999 152.045,129.499 149.5,132C 147.299,132.825 145.466,132.325 144,130.5C 142.779,126.718 143.613,123.718 146.5,121.5 Z"/></g>
<g><path style="opacity:1" fill="#030302" d="M 187.5,141.5 C 188.978,141.238 190.311,141.571 191.5,142.5C 189.16,148.524 186.827,154.524 184.5,160.5C 174.051,166.148 164.551,173.148 156,181.5C 153.682,184.469 152.182,187.802 151.5,191.5C 140.39,197.611 128.39,200.611 115.5,200.5C 113.456,199.969 111.789,198.802 110.5,197C 106.525,196.013 102.859,196.513 99.5,198.5C 98.8826,198.611 98.3826,198.944 98,199.5C 92.4726,197.935 86.9726,196.269 81.5,194.5C 81.3373,190 79.004,187.334 74.5,186.5C 66.7669,185.017 60.2669,181.017 55,174.5C 54.5357,173.906 54.369,173.239 54.5,172.5C 59.5054,175.542 63.6721,174.542 67,169.5C 67.6667,166.833 68.3333,164.167 69,161.5C 72,159.833 74.3333,157.5 76,154.5C 78.724,148.995 81.0574,143.328 83,137.5C 83.8699,138.108 84.3699,138.941 84.5,140C 83.47,142.56 82.3034,145.06 81,147.5C 79.0614,156.23 82.228,159.397 90.5,157C 92,155.5 93.5,154 95,152.5C 102.084,160.653 108.751,160.32 115,151.5C 119.815,159.525 125.815,160.525 133,154.5C 133.329,158.04 135.162,159.206 138.5,158C 139.839,152.488 141.339,146.988 143,141.5C 144.11,139.963 145.61,139.297 147.5,139.5C 145.936,145.076 145.436,150.743 146,156.5C 148.284,158.984 150.784,159.151 153.5,157C 155.617,155.269 157.117,153.102 158,150.5C 158.93,156.118 162.096,158.618 167.5,158C 170.822,155.442 174.489,153.442 178.5,152C 179.96,148.911 181.793,146.078 184,143.5C 184.816,142.177 185.983,141.511 187.5,141.5 Z"/></g>
<g><path style="opacity:1" fill="#608430" d="M 192.5,138.5 C 191.198,140.028 189.531,141.028 187.5,141.5C 185.983,141.511 184.816,142.177 184,143.5C 181.793,146.078 179.96,148.911 178.5,152C 174.489,153.442 170.822,155.442 167.5,158C 162.096,158.618 158.93,156.118 158,150.5C 157.117,153.102 155.617,155.269 153.5,157C 150.784,159.151 148.284,158.984 146,156.5C 145.436,150.743 145.936,145.076 147.5,139.5C 145.61,139.297 144.11,139.963 143,141.5C 141.339,146.988 139.839,152.488 138.5,158C 135.162,159.206 133.329,158.04 133,154.5C 125.815,160.525 119.815,159.525 115,151.5C 108.751,160.32 102.084,160.653 95,152.5C 93.5,154 92,155.5 90.5,157C 82.228,159.397 79.0614,156.23 81,147.5C 82.3034,145.06 83.47,142.56 84.5,140C 84.3699,138.941 83.8699,138.108 83,137.5C 81.0574,143.328 78.724,148.995 76,154.5C 74.3333,157.5 72,159.833 69,161.5C 68.3333,164.167 67.6667,166.833 67,169.5C 63.6721,174.542 59.5054,175.542 54.5,172.5C 54.3359,169.813 54.5026,167.146 55,164.5C 58.0255,161.601 61.1921,159.101 64.5,157C 64.1667,156.5 63.8333,156 63.5,155.5C 56.9722,158.662 52.4722,156.662 50,149.5C 48.7542,141.779 49.9209,134.446 53.5,127.5C 52.6547,124.807 52.1547,122.141 52,119.5C 52.8928,118.289 53.7261,118.289 54.5,119.5C 55.154,121.115 55.654,122.782 56,124.5C 58.0795,122.877 60.2462,121.377 62.5,120C 69.5904,117.564 73.9238,119.897 75.5,127C 72.615,136.931 66.7816,139.097 58,133.5C 56.3481,136.918 55.5147,140.585 55.5,144.5C 54.6746,151.471 57.3412,153.638 63.5,151C 65.5401,148.219 67.2067,145.219 68.5,142C 70.1341,141.506 71.8008,141.34 73.5,141.5C 72.8982,146.075 71.8982,150.575 70.5,155C 70.6667,155.5 70.8333,156 71,156.5C 77.4101,148.934 80.4101,140.267 80,130.5C 80.4244,128.385 81.5911,127.552 83.5,128C 85.3184,132.638 87.6517,136.972 90.5,141C 89.4931,143.517 88.3264,146.017 87,148.5C 86.5065,150.134 86.3398,151.801 86.5,153.5C 89.0991,153.451 91.2658,152.451 93,150.5C 94.6667,146.5 96.3333,142.5 98,138.5C 101.214,133.661 105.38,132.494 110.5,135C 114.436,143.944 111.436,148.444 101.5,148.5C 101.297,150.39 101.963,151.89 103.5,153C 106.303,153.755 108.97,153.422 111.5,152C 114.334,147.85 116.501,143.35 118,138.5C 122.142,133.12 126.808,132.454 132,136.5C 133.599,145.064 130.099,149.064 121.5,148.5C 121.297,150.39 121.963,151.89 123.5,153C 129.309,154.345 133.143,152.178 135,146.5C 135.792,142.196 136.958,138.029 138.5,134C 141.838,132.794 143.671,133.96 144,137.5C 146.552,133.678 149.552,133.012 153,135.5C 153.709,140.616 153.209,145.616 151.5,150.5C 151.714,154.144 152.881,154.477 155,151.5C 157.139,145.888 159.806,140.554 163,135.5C 164.439,133.552 166.272,132.219 168.5,131.5C 171.499,132.156 172.166,133.823 170.5,136.5C 172.114,141.02 172.78,145.687 172.5,150.5C 173.873,150.657 175.207,150.49 176.5,150C 178.177,145.66 180.843,141.993 184.5,139C 187.146,138.503 189.813,138.336 192.5,138.5 Z"/></g>
<g><path style="opacity:1" fill="#15190f" d="M 124.5,138.5 C 125.5,138.5 126.5,138.5 127.5,138.5C 127.572,143.102 125.572,145.102 121.5,144.5C 122.513,142.473 123.513,140.473 124.5,138.5 Z"/></g>
<g><path style="opacity:1" fill="#161910" d="M 104.5,138.5 C 105.995,138.415 106.995,139.081 107.5,140.5C 106.669,143.672 104.669,145.338 101.5,145.5C 102.011,142.978 103.011,140.645 104.5,138.5 Z"/></g>
<g><path style="opacity:1" fill="#0d0f0a" d="M 164.5,137.5 C 165.785,140.589 166.451,143.922 166.5,147.5C 164.208,147.244 162.041,147.577 160,148.5C 160.595,144.568 162.095,140.901 164.5,137.5 Z"/></g>
<g><path style="opacity:1" fill="#0a0c07" d="M 64.5,123.5 C 68.6772,122.842 70.1772,124.508 69,128.5C 66.031,132.226 62.8643,132.393 59.5,129C 60.7619,126.724 62.4286,124.891 64.5,123.5 Z"/></g>
<g><path style="opacity:1" fill="#e9ece4" d="M 195.5,145.5 C 197.362,150.775 195.696,154.442 190.5,156.5C 191.989,152.677 193.656,149.01 195.5,145.5 Z"/></g>
<g><path style="opacity:1" fill="#0d1009" d="M 162.5,150.5 C 163.5,150.5 164.5,150.5 165.5,150.5C 164.754,154.31 163.754,154.31 162.5,150.5 Z"/></g>
<g><path style="opacity:1" fill="#f2f3ee" d="M 35.5,150.5 C 38.7018,156.902 42.2018,163.235 46,169.5C 50.6259,175.137 55.4593,180.47 60.5,185.5C 48.3414,181.511 39.8414,173.511 35,161.5C 34.2446,157.745 34.4113,154.078 35.5,150.5 Z"/></g>
<g><path style="opacity:1" fill="#688a32" d="M 34.5,146.5 C 35.4345,147.568 35.7678,148.901 35.5,150.5C 34.4113,154.078 34.2446,157.745 35,161.5C 39.8414,173.511 48.3414,181.511 60.5,185.5C 61.8333,186.167 62.8333,187.167 63.5,188.5C 44.0709,183.584 33.5709,171.25 32,151.5C 33.0945,149.922 33.9278,148.255 34.5,146.5 Z"/></g>
<g><path style="opacity:1" fill="#171a12" d="M 62.5,162.5 C 63.0431,162.56 63.3764,162.893 63.5,163.5C 62.6493,165.882 61.316,167.882 59.5,169.5C 58.4173,168.635 58.2506,167.635 59,166.5C 60.3756,165.295 61.5423,163.962 62.5,162.5 Z"/></g>
<g><path style="opacity:1" fill="#050604" d="M 178.5,167.5 C 173.09,176.565 165.423,183.899 155.5,189.5C 156.471,185.559 158.471,182.226 161.5,179.5C 167.02,175.244 172.687,171.244 178.5,167.5 Z"/></g>
<g><path style="opacity:1" fill="#608231" d="M 196.5,139.5 C 197.072,141.255 197.906,142.922 199,144.5C 199.667,146.833 199.667,149.167 199,151.5C 195.93,156.073 192.096,159.739 187.5,162.5C 184.008,163.41 181.008,165.076 178.5,167.5C 172.687,171.244 167.02,175.244 161.5,179.5C 158.471,182.226 156.471,185.559 155.5,189.5C 154.395,190.6 153.062,191.267 151.5,191.5C 152.182,187.802 153.682,184.469 156,181.5C 164.551,173.148 174.051,166.148 184.5,160.5C 186.537,159.154 188.537,157.82 190.5,156.5C 195.696,154.442 197.362,150.775 195.5,145.5C 195.205,143.265 195.539,141.265 196.5,139.5 Z"/></g>
<g><path style="opacity:1" fill="#2a3912" d="M 187.5,162.5 C 179.448,176.885 168.115,187.885 153.5,195.5C 152.29,195.932 151.29,196.599 150.5,197.5C 141.188,201.245 131.521,203.578 121.5,204.5C 119.147,203.66 117.147,202.326 115.5,200.5C 128.39,200.611 140.39,197.611 151.5,191.5C 153.062,191.267 154.395,190.6 155.5,189.5C 165.423,183.899 173.09,176.565 178.5,167.5C 181.008,165.076 184.008,163.41 187.5,162.5 Z"/></g>
<g><path style="opacity:1" fill="#2a3a12" d="M 32.5,135.5 C 35.5689,137.993 37.9022,140.993 39.5,144.5C 41.9027,155.31 46.9027,164.643 54.5,172.5C 54.369,173.239 54.5357,173.906 55,174.5C 60.2669,181.017 66.7669,185.017 74.5,186.5C 72.8008,186.34 71.1341,186.506 69.5,187C 72.3223,188.574 75.1556,190.074 78,191.5C 78.4935,193.134 78.6602,194.801 78.5,196.5C 73.3413,194.088 68.3413,191.421 63.5,188.5C 62.8333,187.167 61.8333,186.167 60.5,185.5C 55.4593,180.47 50.6259,175.137 46,169.5C 42.2018,163.235 38.7018,156.902 35.5,150.5C 35.7678,148.901 35.4345,147.568 34.5,146.5C 33.9922,142.803 33.3255,139.136 32.5,135.5 Z"/></g>
<g><path style="opacity:1" fill="#458f11" d="M 44.5,186.5 C 42.146,186.838 39.8127,187.338 37.5,188C 41.6888,188.812 45.6888,188.645 49.5,187.5C 50.2389,187.369 50.9056,187.536 51.5,188C 44.3441,195.969 36.6774,196.469 28.5,189.5C 27.2888,188.726 27.2888,187.893 28.5,187C 32.6963,184.826 37.1963,183.66 42,183.5C 44.7927,183.305 47.2927,183.971 49.5,185.5C 47.9547,186.452 46.288,186.785 44.5,186.5 Z"/></g>
<g><path style="opacity:1" fill="#abc694" d="M 44.5,186.5 C 45.9187,187.451 47.5853,187.784 49.5,187.5C 45.6888,188.645 41.6888,188.812 37.5,188C 39.8127,187.338 42.146,186.838 44.5,186.5 Z"/></g>
<g><path style="opacity:1" fill="#293811" d="M 81.5,194.5 C 86.9726,196.269 92.4726,197.935 98,199.5C 98.3826,198.944 98.8826,198.611 99.5,198.5C 99.8656,199.695 100.699,200.361 102,200.5C 106.515,198.539 110.015,199.705 112.5,204C 110.866,204.494 109.199,204.66 107.5,204.5C 103.821,204.276 100.154,203.942 96.5,203.5C 95.4324,202.566 94.099,202.232 92.5,202.5C 89.1691,201.385 85.8358,200.051 82.5,198.5C 82.5674,197.041 82.2341,195.708 81.5,194.5 Z"/></g>
<g><path style="opacity:1" fill="#4b921a" d="M 156.5,197.5 C 165.135,194.447 170.469,197.447 172.5,206.5C 167.452,206.873 162.785,205.706 158.5,203C 156.993,202.163 156.493,200.996 157,199.5C 159.183,201.183 161.35,201.85 163.5,201.5C 161.302,199.902 158.969,198.569 156.5,197.5 Z"/></g>
<g><path style="opacity:1" fill="#e7eae0" d="M 82.5,198.5 C 85.8358,200.051 89.1691,201.385 92.5,202.5C 87.764,204.68 84.4306,203.347 82.5,198.5 Z"/></g>
<g><path style="opacity:1" fill="#62852e" d="M 74.5,186.5 C 79.004,187.334 81.3373,190 81.5,194.5C 82.2341,195.708 82.5674,197.041 82.5,198.5C 84.4306,203.347 87.764,204.68 92.5,202.5C 94.099,202.232 95.4324,202.566 96.5,203.5C 87.8541,207.841 81.8541,205.507 78.5,196.5C 78.6602,194.801 78.4935,193.134 78,191.5C 75.1556,190.074 72.3223,188.574 69.5,187C 71.1341,186.506 72.8008,186.34 74.5,186.5 Z"/></g>
<g><path style="opacity:1" fill="#63852f" d="M 153.5,195.5 C 151.005,203.774 145.338,208.274 136.5,209C 132.5,209.667 128.5,209.667 124.5,209C 118.981,206.46 113.314,204.96 107.5,204.5C 109.199,204.66 110.866,204.494 112.5,204C 110.015,199.705 106.515,198.539 102,200.5C 100.699,200.361 99.8656,199.695 99.5,198.5C 102.859,196.513 106.525,196.013 110.5,197C 111.789,198.802 113.456,199.969 115.5,200.5C 117.147,202.326 119.147,203.66 121.5,204.5C 122.842,205.793 124.509,206.626 126.5,207C 134.751,208.901 142.084,207.234 148.5,202C 150.037,200.89 150.703,199.39 150.5,197.5C 151.29,196.599 152.29,195.932 153.5,195.5 Z"/></g>
<g><path style="opacity:1" fill="#eff1eb" d="M 150.5,197.5 C 150.703,199.39 150.037,200.89 148.5,202C 142.084,207.234 134.751,208.901 126.5,207C 124.509,206.626 122.842,205.793 121.5,204.5C 131.521,203.578 141.188,201.245 150.5,197.5 Z"/></g>
</svg>
